<svg
        width={14}
        height={15}
        viewBox="0 0 14 15"
        fill="none"
        xmlns="http://www.w3.org/2000/svg"
        {...props}
      >
        <path
          fillRule="evenodd"
          clipRule="evenodd"
          d="M7.00586 14.3924C10.8718 14.3924 14.0059 11.2887 14.0059 7.46036C14.0059 3.63198 10.8718 0.52832 7.00586 0.52832C3.13995 0.52832 0.00585938 3.63198 0.00585938 7.46036C0.00585938 11.2887 3.13995 14.3924 7.00586 14.3924ZM10.525 5.58871C10.6093 5.49911 10.6552 5.38061 10.653 5.25816C10.6508 5.13572 10.6007 5.01889 10.5133 4.93229C10.4258 4.8457 10.3078 4.7961 10.1842 4.79393C10.0605 4.79177 9.94088 4.83723 9.8504 4.92071L5.75986 8.9706L4.18613 7.15251C4.10349 7.0583 3.98657 7.00028 3.86089 6.99111C3.73521 6.98194 3.61097 7.02237 3.51527 7.10357C3.41958 7.18478 3.3602 7.30017 3.35009 7.42456C3.33998 7.54896 3.37996 7.67226 3.46131 7.76757L5.14672 9.71485C5.21805 9.79726 5.3058 9.86419 5.40448 9.91144C5.50315 9.95869 5.61063 9.98523 5.72015 9.9894C5.82967 9.99357 5.93889 9.97528 6.04094 9.93568C6.14299 9.89608 6.23567 9.83602 6.31318 9.75928L10.525 5.58871Z"
          fill="currentColor"
        />
      </svg>