<svg
        width="25"
        height="25"
        viewBox="0 0 25 25"
        fill="none"
        xmlns="http://www.w3.org/2000/svg"
      >
        <path
          d="M11.8283 6.86967C12.1789 6.81593 12.5331 6.7892 12.8878 6.78971C16.0662 6.78971 19.0548 9.07858 20.7939 12.7867C20.5279 13.3511 20.2275 13.8985 19.8944 14.4259C19.7886 14.5897 19.733 14.7807 19.7344 14.9757C19.7367 15.1938 19.8102 15.4052 19.9438 15.5776C20.0774 15.7501 20.2638 15.8741 20.4744 15.9307C20.6851 15.9873 20.9085 15.9735 21.1105 15.8913C21.3126 15.8091 21.4822 15.663 21.5935 15.4754C22.0592 14.7437 22.4637 13.9748 22.8029 13.1766C22.8565 13.0518 22.8842 12.9175 22.8842 12.7817C22.8842 12.646 22.8565 12.5117 22.8029 12.3869C20.7839 7.69926 16.9858 4.7907 12.8878 4.7907C12.4187 4.78834 11.9504 4.82848 11.4885 4.91064C11.3573 4.93295 11.2317 4.9809 11.119 5.05175C11.0062 5.12259 10.9086 5.21495 10.8315 5.32354C10.7545 5.43213 10.6996 5.55483 10.67 5.68463C10.6404 5.81444 10.6366 5.9488 10.6589 6.08006C10.6812 6.21132 10.7292 6.33689 10.8 6.44962C10.8709 6.56235 10.9632 6.66002 11.0718 6.73705C11.1804 6.81409 11.3031 6.86898 11.4329 6.89859C11.5627 6.92821 11.6971 6.93196 11.8283 6.90965V6.86967ZM4.60192 3.08154C4.50872 2.98835 4.39809 2.91443 4.27633 2.86399C4.15456 2.81356 4.02406 2.7876 3.89227 2.7876C3.76047 2.7876 3.62997 2.81356 3.50821 2.86399C3.38645 2.91443 3.27581 2.98835 3.18262 3.08154C2.99441 3.26975 2.88867 3.52502 2.88867 3.79119C2.88867 4.05736 2.99441 4.31263 3.18262 4.50084L6.28109 7.58932C4.86736 8.95017 3.7422 10.5818 2.97272 12.3869C2.91769 12.513 2.88928 12.6492 2.88928 12.7867C2.88928 12.9243 2.91769 13.0604 2.97272 13.1865C4.99172 17.8742 8.78984 20.7828 12.8878 20.7828C14.684 20.7704 16.4378 20.2356 17.9353 19.2436L21.1737 22.4919C21.2666 22.5856 21.3772 22.66 21.499 22.7107C21.6208 22.7615 21.7514 22.7876 21.8834 22.7876C22.0153 22.7876 22.146 22.7615 22.2678 22.7107C22.3896 22.66 22.5001 22.5856 22.593 22.4919C22.6867 22.399 22.7611 22.2885 22.8118 22.1667C22.8625 22.0449 22.8887 21.9142 22.8887 21.7823C22.8887 21.6504 22.8625 21.5197 22.8118 21.3979C22.7611 21.2761 22.6867 21.1656 22.593 21.0726L4.60192 3.08154ZM10.9588 12.267L13.4076 14.7158C13.2386 14.7642 13.0635 14.7878 12.8878 14.7858C12.3576 14.7858 11.8492 14.5751 11.4743 14.2003C11.0994 13.8254 10.8888 13.3169 10.8888 12.7867C10.8868 12.611 10.9103 12.4359 10.9588 12.267ZM12.8878 18.7838C9.70939 18.7838 6.72087 16.4949 4.99172 12.7867C5.63749 11.3612 6.55402 10.0747 7.69039 8.99862L9.45951 10.7877C9.04397 11.5462 8.88554 12.4189 9.008 13.275C9.13045 14.131 9.5272 14.9244 10.1387 15.5359C10.7502 16.1474 11.5435 16.5441 12.3996 16.6666C13.2557 16.789 14.1284 16.6306 14.8868 16.215L16.476 17.7843C15.3877 18.4248 14.1506 18.7694 12.8878 18.7838Z"
          fill="currentColor"
        />
      </svg>