<svg
        width="25"
        height="25"
        viewBox="0 0 25 25"
        fill="none"
        xmlns="http://www.w3.org/2000/svg"
        {...props}
      >
        <path
          d="M8.22135 9.64958C8.04454 9.64958 7.87497 9.71982 7.74995 9.84484C7.62493 9.96986 7.55469 10.1394 7.55469 10.3162V14.3162C7.55469 14.4931 7.62493 14.6626 7.74995 14.7876C7.87497 14.9127 8.04454 14.9829 8.22135 14.9829H17.5547C17.7315 14.9829 17.9011 14.9127 18.0261 14.7876C18.1511 14.6626 18.2214 14.4931 18.2214 14.3162V10.3162C18.2214 10.1394 18.1511 9.96986 18.0261 9.84484C17.9011 9.71982 17.7315 9.64958 17.5547 9.64958H15.5547V8.31624H16.2214C16.3982 8.31624 16.5677 8.24601 16.6928 8.12098C16.8178 7.99596 16.888 7.82639 16.888 7.64958C16.888 7.47277 16.8178 7.3032 16.6928 7.17817C16.5677 7.05315 16.3982 6.98291 16.2214 6.98291H9.55469C9.37788 6.98291 9.20831 7.05315 9.08328 7.17817C8.95826 7.3032 8.88802 7.47277 8.88802 7.64958C8.88802 7.82639 8.95826 7.99596 9.08328 8.12098C9.20831 8.24601 9.37788 8.31624 9.55469 8.31624H10.2214V9.64958H8.22135ZM8.88802 10.9829H10.2214V13.6496H8.88802V10.9829ZM16.888 10.9829V13.6496H15.5547V10.9829H16.888ZM14.2214 8.31624V13.6496H13.5547V12.9829C13.5547 12.8061 13.4845 12.6365 13.3594 12.5115C13.2344 12.3865 13.0648 12.3162 12.888 12.3162C12.7112 12.3162 12.5416 12.3865 12.4166 12.5115C12.2916 12.6365 12.2214 12.8061 12.2214 12.9829V13.6496H11.5547V8.31624H14.2214Z"
          fill="currentColor"
        />
        <path
          d="M22.8883 16.3164H6.88835C6.71154 16.3164 6.54197 16.3866 6.41694 16.5117C6.29192 16.6367 6.22168 16.8063 6.22168 16.9831C6.22168 17.1599 6.29192 17.3295 6.41694 17.4545C6.54197 17.5795 6.71154 17.6497 6.88835 17.6497H22.2217V18.3164C22.2217 18.4932 22.1514 18.6628 22.0264 18.7878C21.9014 18.9128 21.7318 18.9831 21.555 18.9831H4.22168C4.04487 18.9831 3.8753 18.9128 3.75028 18.7878C3.62525 18.6628 3.55501 18.4932 3.55501 18.3164V17.6497H4.22168C4.39849 17.6497 4.56806 17.5795 4.69308 17.4545C4.81811 17.3295 4.88835 17.1599 4.88835 16.9831V6.31641C4.88835 6.1396 4.95858 5.97003 5.08361 5.845C5.20863 5.71998 5.3782 5.64974 5.55501 5.64974H20.2217C20.3985 5.64974 20.5681 5.71998 20.6931 5.845C20.8181 5.97003 20.8883 6.1396 20.8883 6.31641V14.3164C20.8883 14.4932 20.9586 14.6628 21.0836 14.7878C21.2086 14.9128 21.3782 14.9831 21.555 14.9831C21.7318 14.9831 21.9014 14.9128 22.0264 14.7878C22.1514 14.6628 22.2217 14.4932 22.2217 14.3164V6.31641C22.2217 5.78597 22.011 5.27727 21.6359 4.90219C21.2608 4.52712 20.7521 4.31641 20.2217 4.31641H5.55501C5.02458 4.31641 4.51587 4.52712 4.1408 4.90219C3.76573 5.27727 3.55501 5.78597 3.55501 6.31641V16.3164H2.88835C2.71154 16.3164 2.54197 16.3866 2.41694 16.5117C2.29192 16.6367 2.22168 16.8063 2.22168 16.9831V18.3164C2.22168 18.8468 2.43239 19.3555 2.80747 19.7306C3.18254 20.1057 3.69125 20.3164 4.22168 20.3164H21.555C22.0854 20.3164 22.5942 20.1057 22.9692 19.7306C23.3443 19.3555 23.555 18.8468 23.555 18.3164V16.9831C23.555 16.8063 23.4848 16.6367 23.3598 16.5117C23.2347 16.3866 23.0652 16.3164 22.8883 16.3164Z"
          fill="currentColor"
        />
      </svg>