<svg
        width="25"
        height="25"
        viewBox="0 0 25 25"
        fill="none"
        xmlns="http://www.w3.org/2000/svg"
      >
        <path
          d="M22.0982 12.3876C20.0789 7.6976 16.2802 4.7876 12.1816 4.7876C8.08307 4.7876 4.28439 7.6976 2.2651 12.3876C2.21005 12.5138 2.18164 12.6499 2.18164 12.7876C2.18164 12.9253 2.21005 13.0614 2.2651 13.1876C4.28439 17.8776 8.08307 20.7876 12.1816 20.7876C16.2802 20.7876 20.0789 17.8776 22.0982 13.1876C22.1532 13.0614 22.1816 12.9253 22.1816 12.7876C22.1816 12.6499 22.1532 12.5138 22.0982 12.3876ZM12.1816 18.7876C9.01274 18.7876 6.01379 16.4976 4.28439 12.7876C6.01379 9.0776 9.01274 6.7876 12.1816 6.7876C15.3505 6.7876 18.3495 9.0776 20.0789 12.7876C18.3495 16.4976 15.3505 18.7876 12.1816 18.7876ZM12.1816 8.7876C11.3908 8.7876 10.6177 9.02219 9.96013 9.46172C9.30257 9.90125 8.79005 10.526 8.48741 11.2569C8.18476 11.9878 8.10558 12.792 8.25987 13.568C8.41415 14.3439 8.79498 15.0566 9.3542 15.616C9.91341 16.1754 10.6259 16.5564 11.4016 16.7107C12.1772 16.8651 12.9812 16.7859 13.7118 16.4831C14.4425 16.1804 15.067 15.6677 15.5064 15.0099C15.9457 14.3521 16.1802 13.5787 16.1802 12.7876C16.1802 11.7267 15.759 10.7093 15.0091 9.95917C14.2592 9.20902 13.2421 8.7876 12.1816 8.7876ZM12.1816 14.7876C11.7862 14.7876 11.3997 14.6703 11.0709 14.4505C10.7421 14.2308 10.4858 13.9184 10.3345 13.553C10.1832 13.1875 10.1436 12.7854 10.2208 12.3974C10.2979 12.0095 10.4883 11.6531 10.7679 11.3734C11.0475 11.0937 11.4038 10.9032 11.7916 10.826C12.1794 10.7489 12.5814 10.7885 12.9467 10.9398C13.3121 11.0912 13.6243 11.3476 13.844 11.6765C14.0637 12.0054 14.1809 12.392 14.1809 12.7876C14.1809 13.318 13.9703 13.8267 13.5954 14.2018C13.2204 14.5769 12.7119 14.7876 12.1816 14.7876Z"
          fill="currentColor"
        />
      </svg>