<svg
        width="20"
        height="20"
        viewBox="0 0 20 20"
        fill="none"
        xmlns="http://www.w3.org/2000/svg"
        {...props}
      >
        <path
          d="M6.51033 10.484C6.31255 10.484 6.11921 10.5426 5.95476 10.6525C5.79031 10.7624 5.66214 10.9186 5.58645 11.1013C5.51077 11.284 5.49096 11.4851 5.52955 11.6791C5.56813 11.873 5.66337 12.0512 5.80323 12.1911C5.94308 12.3309 6.12126 12.4262 6.31524 12.4648C6.50922 12.5033 6.71029 12.4835 6.89302 12.4079C7.07574 12.3322 7.23192 12.204 7.3418 12.0395C7.45168 11.8751 7.51033 11.6818 7.51033 11.484C7.51033 11.2188 7.40498 10.9644 7.21744 10.7769C7.0299 10.5893 6.77555 10.484 6.51033 10.484ZM6.51033 6.00397C6.31255 6.00397 6.11921 6.06262 5.95476 6.1725C5.79031 6.28239 5.66214 6.43856 5.58645 6.62129C5.51077 6.80402 5.49096 7.00508 5.52955 7.19906C5.56813 7.39305 5.66337 7.57123 5.80323 7.71108C5.94308 7.85093 6.12126 7.94617 6.31524 7.98476C6.50922 8.02334 6.71029 8.00354 6.89302 7.92785C7.07574 7.85217 7.23192 7.72399 7.3418 7.55955C7.45168 7.3951 7.51033 7.20176 7.51033 7.00397C7.51033 6.73876 7.40498 6.4844 7.21744 6.29687C7.0299 6.10933 6.77555 6.00397 6.51033 6.00397ZM10.0003 8.00397C9.73512 8.00397 9.48076 8.10933 9.29323 8.29687C9.10569 8.4844 9.00033 8.73876 9.00033 9.00397V10.004C9.00033 10.2692 9.10569 10.5235 9.29323 10.7111C9.48076 10.8986 9.73512 11.004 10.0003 11.004C10.2655 11.004 10.5199 10.8986 10.7074 10.7111C10.895 10.5235 11.0003 10.2692 11.0003 10.004V9.00397C11.0003 8.73876 10.895 8.4844 10.7074 8.29687C10.5199 8.10933 10.2655 8.00397 10.0003 8.00397ZM18.5003 6.57397C18.1554 6.37549 17.7743 6.24763 17.3795 6.19784C16.9846 6.14805 16.5838 6.17733 16.2003 6.28397C15.8013 6.39087 15.4296 6.5818 15.1103 6.84397L3.51033 0.133975C3.35831 0.0462063 3.18587 0 3.01033 0C2.8348 0 2.66235 0.0462063 2.51033 0.133975C2.35587 0.220801 2.22724 0.347111 2.13763 0.499978C2.04802 0.652845 2.00064 0.826778 2.00033 1.00397V14.174C1.41019 14.373 0.898504 14.7544 0.539056 15.263C0.179607 15.7716 -0.00903294 16.3812 0.000332598 17.004C5.45126e-05 17.786 0.30512 18.5371 0.850542 19.0975C1.39596 19.6579 2.13863 19.9831 2.92033 20.004H3.50033C6.77707 19.9963 9.99343 19.1217 12.8229 17.469C15.6523 15.8163 17.994 13.4443 19.6103 10.594C19.9836 9.91197 20.0776 9.11169 19.8724 8.36177C19.6672 7.61186 19.1789 6.9709 18.5103 6.57397H18.5003ZM4.00033 2.73397L13.8903 8.44397C12.7931 10.0812 11.3263 11.4375 9.60832 12.4033C7.89033 13.3691 5.9693 13.9174 4.00033 14.004V2.73397ZM17.8703 9.61397C16.3858 12.2296 14.2177 14.3922 11.5983 15.8702C8.9789 17.3481 6.00681 18.0857 3.00033 18.004C2.73512 18.004 2.48076 17.8986 2.29323 17.7111C2.10569 17.5235 2.00033 17.2692 2.00033 17.004C1.99955 16.87 2.0257 16.7372 2.07724 16.6135C2.12877 16.4898 2.20464 16.3778 2.30033 16.284C2.4882 16.1029 2.7394 16.0024 3.00033 16.004H3.51033C6.07805 16.0029 8.59944 15.3201 10.8167 14.0252C13.034 12.7303 14.8677 10.8698 16.1303 8.63398C16.191 8.52428 16.274 8.42848 16.3739 8.35271C16.4737 8.27694 16.5883 8.22287 16.7103 8.19397C16.9625 8.12477 17.2317 8.15707 17.4603 8.28397C17.6898 8.4073 17.862 8.61528 17.9405 8.86367C18.0189 9.11206 17.9973 9.38125 17.8803 9.61397H17.8703Z"
          fill="currentColor"
        />
      </svg>