<svg
        width="21"
        height="20"
        viewBox="0 0 21 20"
        fill="none"
        xmlns="http://www.w3.org/2000/svg"
      >
        <path
          d="M20.253 3.08345C20.2538 2.47383 20.0736 1.87767 19.7353 1.37052C19.3969 0.863362 18.9155 0.468038 18.3522 0.23463C17.7889 0.00122251 17.169 -0.0597634 16.571 0.0593995C15.9729 0.178562 15.4238 0.472511 14.993 0.904002L12.183 3.7133L5.69299 1.55384C5.5202 1.49954 5.3359 1.49319 5.15977 1.53544C4.98365 1.5777 4.82231 1.66699 4.69299 1.79378L2.31299 4.15319C2.20022 4.26723 2.11655 4.40673 2.06903 4.5599C2.02152 4.71308 2.01156 4.87543 2.04 5.03325C2.06844 5.19108 2.13443 5.33976 2.23242 5.46673C2.3304 5.5937 2.4575 5.69524 2.60299 5.76278L7.78299 8.11219L5.18299 10.7115L3.47299 9.85176C3.28836 9.75186 3.07697 9.71258 2.86877 9.7395C2.66057 9.76641 2.46613 9.85815 2.31299 10.0017L0.54299 11.8113C0.356739 11.9986 0.252197 12.252 0.252197 12.5161C0.252197 12.7802 0.356739 13.0336 0.54299 13.2209L7.03299 19.7093C7.22035 19.8955 7.4738 20 7.73799 20C8.00218 20 8.25563 19.8955 8.44299 19.7093L10.253 17.9397C10.4031 17.7912 10.5023 17.5991 10.5364 17.3907C10.5706 17.1824 10.5378 16.9686 10.443 16.78L9.58299 15.0704L12.183 12.4711L14.533 17.6498C14.6005 17.7952 14.7021 17.9223 14.8291 18.0203C14.9561 18.1182 15.1048 18.1842 15.2627 18.2126C15.4206 18.2411 15.583 18.2311 15.7362 18.1836C15.8894 18.1361 16.0289 18.0525 16.143 17.9397L18.503 15.5803C18.6298 15.451 18.7191 15.2897 18.7614 15.1136C18.8037 14.9376 18.7973 14.7533 18.743 14.5806L16.583 8.0922L19.353 5.26291C19.6402 4.97754 19.8677 4.63786 20.0222 4.26367C20.1768 3.88948 20.2552 3.48827 20.253 3.08345ZM17.933 3.85326L14.693 7.09245C14.5662 7.22174 14.4769 7.38303 14.4346 7.55911C14.3923 7.7352 14.3987 7.91945 14.453 8.0922L16.613 14.5706L15.713 15.4703L13.363 10.3016C13.2963 10.1548 13.1951 10.0264 13.068 9.92713C12.9408 9.8279 12.7916 9.76088 12.633 9.73178C12.4731 9.7026 12.3084 9.71284 12.1533 9.76162C11.9983 9.8104 11.8574 9.89624 11.743 10.0117L7.62299 14.1707C7.47508 14.3184 7.3772 14.5088 7.34311 14.715C7.30903 14.9212 7.34047 15.1329 7.43299 15.3204L8.25299 17L7.69299 17.5598L2.66299 12.5211L3.25299 12.0012L4.96299 12.861C5.15048 12.9535 5.36225 12.9849 5.56853 12.9509C5.77482 12.9168 5.96523 12.8189 6.11299 12.671L10.253 8.51209C10.3679 8.39812 10.4534 8.25796 10.5022 8.10365C10.551 7.94935 10.5615 7.78552 10.533 7.62623C10.5045 7.46694 10.4377 7.31695 10.3384 7.18915C10.2391 7.06134 10.1103 6.95955 9.96299 6.8925L4.75299 4.54309L5.65299 3.64331L12.133 5.80277C12.3058 5.85707 12.4901 5.86342 12.6662 5.82117C12.8423 5.77891 13.0037 5.68962 13.133 5.56283L16.373 2.32365C16.4726 2.22177 16.5916 2.14083 16.723 2.08557C16.8544 2.03031 16.9955 2.00184 17.138 2.00184C17.2805 2.00184 17.4216 2.03031 17.553 2.08557C17.6843 2.14083 17.8033 2.22177 17.903 2.32365C18.0073 2.42027 18.0898 2.53802 18.145 2.66904C18.2002 2.80006 18.2268 2.94134 18.223 3.08345C18.2284 3.22462 18.2056 3.36544 18.1558 3.49764C18.1059 3.62984 18.0302 3.75075 17.933 3.85326Z"
          fill="currentColor"
        />
      </svg>