<svg
        width="10"
        height="9"
        viewBox="0 0 10 9"
        fill="none"
        xmlns="http://www.w3.org/2000/svg"
      >
        <path
          d="M5.04347 6.1729C4.96121 6.1729 4.8808 6.19729 4.81241 6.24299C4.74401 6.28869 4.69071 6.35365 4.65923 6.42964C4.62775 6.50564 4.61951 6.58926 4.63556 6.66994C4.65161 6.75062 4.69122 6.82472 4.74938 6.88289C4.80755 6.94105 4.88166 6.98066 4.96233 6.99671C5.04301 7.01275 5.12663 7.00452 5.20263 6.97304C5.27862 6.94156 5.34358 6.88826 5.38928 6.81986C5.43498 6.75147 5.45937 6.67106 5.45937 6.5888C5.45937 6.4785 5.41555 6.37271 5.33755 6.29472C5.25956 6.21672 5.15377 6.1729 5.04347 6.1729ZM9.48111 6.78427L6.13312 0.961692C6.02491 0.767681 5.86686 0.606081 5.6753 0.493585C5.48374 0.381089 5.26562 0.321777 5.04347 0.321777C4.82132 0.321777 4.6032 0.381089 4.41164 0.493585C4.22008 0.606081 4.06203 0.767681 3.95381 0.961692L0.626626 6.78427C0.514664 6.9731 0.454503 7.18812 0.452216 7.40763C0.449929 7.62714 0.505598 7.84337 0.613602 8.03448C0.721606 8.2256 0.878121 8.38484 1.06735 8.49612C1.25657 8.60741 1.47181 8.66679 1.69133 8.66829H8.39561C8.61689 8.67047 8.83477 8.61376 9.02691 8.50398C9.21905 8.39419 9.37853 8.23528 9.489 8.04354C9.59948 7.8518 9.65697 7.63412 9.65558 7.41284C9.65419 7.19155 9.59398 6.97461 9.48111 6.78427ZM8.7616 7.61607C8.72515 7.68093 8.67196 7.73482 8.60759 7.77213C8.54322 7.80944 8.47001 7.82879 8.39561 7.82818H1.69133C1.61693 7.82879 1.54372 7.80944 1.47935 7.77213C1.41498 7.73482 1.36179 7.68093 1.32534 7.61607C1.28883 7.55284 1.26962 7.48113 1.26962 7.40812C1.26962 7.33511 1.28883 7.2634 1.32534 7.20017L4.65252 1.37759C4.68743 1.30947 4.74045 1.25229 4.80576 1.21237C4.87107 1.17245 4.94613 1.15133 5.02267 1.15133C5.09922 1.15133 5.17428 1.17245 5.23959 1.21237C5.3049 1.25229 5.35792 1.30947 5.39282 1.37759L8.74081 7.20017C8.78207 7.26249 8.80578 7.33477 8.80944 7.40942C8.8131 7.48408 8.79657 7.55833 8.7616 7.62439V7.61607ZM5.04347 2.84571C4.93317 2.84571 4.82738 2.88953 4.74938 2.96753C4.67139 3.04552 4.62757 3.15131 4.62757 3.26161V4.92521C4.62757 5.03551 4.67139 5.14129 4.74938 5.21929C4.82738 5.29729 4.93317 5.3411 5.04347 5.3411C5.15377 5.3411 5.25956 5.29729 5.33755 5.21929C5.41555 5.14129 5.45937 5.03551 5.45937 4.92521V3.26161C5.45937 3.15131 5.41555 3.04552 5.33755 2.96753C5.25956 2.88953 5.15377 2.84571 5.04347 2.84571Z"
          fill="currentColor"
        />
      </svg>