<svg
        width="22"
        height="20"
        viewBox="0 0 22 20"
        fill="none"
        xmlns="http://www.w3.org/2000/svg"
      >
        <path
          d="M21 9.99242H4V4.40258C3.99649 4.04245 4.09153 3.68822 4.27484 3.37822C4.45815 3.06822 4.72275 2.81425 5.04 2.64379C5.39081 2.45368 5.79058 2.37314 6.18764 2.41259C5.98554 3.02465 5.95683 3.68071 6.10469 4.30808C6.25255 4.93545 6.5712 5.50964 7.02535 5.96703L8.08594 7.02758C8.17877 7.12046 8.28899 7.19414 8.41031 7.2444C8.53162 7.29467 8.66165 7.32054 8.79297 7.32054C8.92429 7.32054 9.05432 7.29467 9.17563 7.2444C9.29695 7.19414 9.40717 7.12046 9.5 7.02758L13.0352 3.49242C13.128 3.39959 13.2017 3.28937 13.252 3.16805C13.3023 3.04674 13.3281 2.91671 13.3281 2.78539C13.3281 2.65407 13.3023 2.52404 13.252 2.40273C13.2017 2.28142 13.128 2.17119 13.0352 2.07836L11.9746 1.01781C11.3843 0.430186 10.6035 0.0727555 9.77301 0.00995173C8.94248 -0.0528521 8.11682 0.183102 7.44489 0.675281C6.83906 0.438672 6.18459 0.353654 5.53841 0.427621C4.89223 0.501588 4.27391 0.732302 3.73722 1.0997C3.20052 1.46709 2.76171 1.96004 2.45895 2.53567C2.15618 3.1113 1.99863 3.75218 2 4.40258V9.99242H1C0.734784 9.99242 0.48043 10.0978 0.292893 10.2853C0.105357 10.4729 0 10.7272 0 10.9924C0 11.2576 0.105357 11.512 0.292893 11.6995C0.48043 11.8871 0.734784 11.9924 1 11.9924H2V14.9924C2.0019 15.6108 2.19517 16.2134 2.55327 16.7176C2.91137 17.2217 3.41674 17.6027 4 17.8081V18.9924C4 19.2576 4.10536 19.512 4.29289 19.6995C4.48043 19.8871 4.73478 19.9924 5 19.9924C5.26522 19.9924 5.51957 19.8871 5.70711 19.6995C5.89464 19.512 6 19.2576 6 18.9924V17.9924H16V18.9924C16 19.2576 16.1054 19.512 16.2929 19.6995C16.4804 19.8871 16.7348 19.9924 17 19.9924C17.2652 19.9924 17.5196 19.8871 17.7071 19.6995C17.8946 19.512 18 19.2576 18 18.9924V17.8082C18.5833 17.6027 19.0886 17.2218 19.4467 16.7176C19.8048 16.2134 19.9981 15.6108 20 14.9924V11.9924H21C21.2652 11.9924 21.5196 11.8871 21.7071 11.6995C21.8946 11.512 22 11.2576 22 10.9924C22 10.7272 21.8946 10.4729 21.7071 10.2853C21.5196 10.0978 21.2652 9.99242 21 9.99242ZM8.43945 2.43187C8.72098 2.15108 9.10238 1.9934 9.5 1.9934C9.89762 1.9934 10.279 2.15108 10.5605 2.43187L10.9141 2.78539L8.793 4.90648L8.43948 4.55297C8.15854 4.27152 8.00075 3.8901 8.00074 3.49243C8.00074 3.09476 8.15852 2.71333 8.43945 2.43187ZM18 14.9924C17.9998 15.2576 17.8944 15.5118 17.7069 15.6993C17.5194 15.8868 17.2652 15.9922 17 15.9924H5C4.73484 15.9922 4.48059 15.8868 4.29309 15.6993C4.10559 15.5118 4.00018 15.2576 4 14.9924V11.9924H18V14.9924Z"
          fill="#4f4f4f"
        />
      </svg>